<svg width="24" height="24" viewBox="0 0 24 24" fill="none" xmlns="http://www.w3.org/2000/svg">
<g id="bx:bxl-instagram-alt" clip-path="url(#clip0_2_3861)">
<g id="Group 3">
<path id="Vector" d="M23.3246 6.90662C23.3115 5.9241 23.1273 4.95136 22.7802 4.03189C22.4792 3.25632 22.0194 2.55197 21.4303 1.96383C20.8412 1.3757 20.1357 0.916711 19.3588 0.616199C18.4496 0.275483 17.4892 0.091251 16.5183 0.0713495C15.2682 0.0155672 14.8719 0 11.6987 0C8.52551 0 8.11879 8.69882e-08 6.87784 0.0713495C5.90738 0.0913974 4.94735 0.275627 4.03861 0.616199C3.26163 0.916501 2.55599 1.37541 1.96685 1.96358C1.37771 2.55174 0.918028 3.2562 0.617226 4.03189C0.275258 4.93885 0.0911196 5.89749 0.0727677 6.86641C0.0168925 8.11567 0 8.51133 0 11.6792C0 14.8472 -9.68145e-09 15.2519 0.0727677 16.4921C0.092259 17.4624 0.275477 18.4198 0.617226 19.3292C0.918533 20.1046 1.37855 20.8088 1.96789 21.3967C2.55723 21.9847 3.26293 22.4434 4.0399 22.7436C4.94617 23.098 5.90636 23.2954 6.87914 23.3274C8.13049 23.3831 8.52681 23.4 11.7 23.4C14.8732 23.4 15.2799 23.4 16.5209 23.3274C17.4917 23.3083 18.4523 23.1245 19.3614 22.7838C20.1381 22.4829 20.8434 22.0238 21.4325 21.4357C22.0215 20.8477 22.4814 20.1435 22.7828 19.3681C23.1245 18.46 23.3077 17.5027 23.3272 16.531C23.3831 15.283 23.4 14.8874 23.4 11.7182C23.3974 8.55025 23.3974 8.1481 23.3246 6.90662ZM11.6909 17.67C8.37218 17.67 5.68367 14.986 5.68367 11.6728C5.68367 8.35955 8.37218 5.67552 11.6909 5.67552C13.2841 5.67552 14.8121 6.30737 15.9387 7.43207C17.0652 8.55677 17.6981 10.0822 17.6981 11.6728C17.6981 13.2633 17.0652 14.7887 15.9387 15.9134C14.8121 17.0381 13.2841 17.67 11.6909 17.67ZM17.9372 6.85213C17.1615 6.85213 16.5365 6.22686 16.5365 5.45369C16.5365 5.27013 16.5727 5.08836 16.643 4.91877C16.7134 4.74918 16.8165 4.59509 16.9465 4.46529C17.0766 4.3355 17.2309 4.23254 17.4008 4.16229C17.5706 4.09204 17.7527 4.05589 17.9366 4.05589C18.1204 4.05589 18.3025 4.09204 18.4724 4.16229C18.6423 4.23254 18.7966 4.3355 18.9266 4.46529C19.0566 4.59509 19.1598 4.74918 19.2301 4.91877C19.3005 5.08836 19.3367 5.27013 19.3367 5.45369C19.3367 6.22686 18.7104 6.85213 17.9372 6.85213Z" fill="#4F4F4F"/>
<path id="Vector_2" d="M11.6912 15.5687C13.8463 15.5687 15.5934 13.8245 15.5934 11.673C15.5934 9.5215 13.8463 7.77734 11.6912 7.77734C9.53612 7.77734 7.78906 9.5215 7.78906 11.673C7.78906 13.8245 9.53612 15.5687 11.6912 15.5687Z" fill="#4F4F4F"/>
</g>
</g>
<defs>
<clipPath id="clip0_2_3861">
<rect width="24" height="24" fill="white"/>
</clipPath>
</defs>
</svg>
