<svg width="24" height="24" viewBox="0 0 24 24" fill="none" xmlns="http://www.w3.org/2000/svg">
<g id="bx:bxl-facebook-circle" clip-path="url(#clip0_2_3859)">
<path id="Vector" d="M11.522 0.00195312C5.15997 0.00195312 0.00195312 5.27219 0.00195312 11.7726C0.00195312 17.6467 4.21409 22.5155 9.72235 23.402V15.1758H6.79598V11.7726H9.72235V9.17926C9.72235 6.22689 11.4425 4.59884 14.0727 4.59884C15.3332 4.59884 16.6535 4.8284 16.6535 4.8284V7.72308H15.1972C13.7686 7.72308 13.3216 8.63187 13.3216 9.56302V11.7702H16.5141L16.0037 15.1735H13.3216V23.3996C18.8298 22.5179 23.042 17.6479 23.042 11.7726C23.042 5.27219 17.8839 0.00195312 11.522 0.00195312Z" fill="#4F4F4F"/>
</g>
<defs>
<clipPath id="clip0_2_3859">
<rect width="24" height="24" fill="white"/>
</clipPath>
</defs>
</svg>
