<svg width="24" height="24" viewBox="0 0 24 24" fill="none" xmlns="http://www.w3.org/2000/svg">
<g id="entypo-social:twitter-with-circle" clip-path="url(#clip0_2_3865)">
<path id="Vector" d="M12.0005 0.47998C5.63807 0.47998 0.480469 5.63758 0.480469 12C0.480469 18.3624 5.63807 23.52 12.0005 23.52C18.3629 23.52 23.5205 18.3624 23.5205 12C23.5205 5.63758 18.3629 0.47998 12.0005 0.47998ZM16.6865 9.91678C16.6913 10.0152 16.6925 10.1136 16.6925 10.2096C16.6925 13.2096 14.4113 16.6668 10.2377 16.6668C9.00442 16.6688 7.79683 16.3146 6.76007 15.6468C6.93647 15.6684 7.11767 15.6768 7.30127 15.6768C8.36447 15.6768 9.34247 15.3156 10.1189 14.706C9.64573 14.6967 9.18727 14.54 8.8074 14.2578C8.42753 13.9756 8.14517 13.5819 7.99967 13.1316C8.33946 13.1962 8.68949 13.1826 9.02327 13.092C8.50973 12.9881 8.04791 12.7099 7.71612 12.3044C7.38433 11.8989 7.203 11.3911 7.20287 10.8672V10.8396C7.50887 11.0088 7.85927 11.112 8.23127 11.124C7.74983 10.8035 7.40901 10.3112 7.27852 9.74774C7.14803 9.18429 7.23773 8.59228 7.52927 8.09278C8.09922 8.79358 8.80998 9.36688 9.61555 9.77555C10.4211 10.1842 11.3035 10.4192 12.2057 10.4652C12.091 9.97835 12.1403 9.46727 12.3461 9.01139C12.5518 8.5555 12.9024 8.18037 13.3434 7.9443C13.7843 7.70823 14.2909 7.62445 14.7843 7.70599C15.2778 7.78752 15.7305 8.02981 16.0721 8.39518C16.5799 8.29471 17.0668 8.10845 17.5121 7.84438C17.3428 8.37014 16.9885 8.81659 16.5149 9.10078C16.9647 9.0466 17.4039 8.92567 17.8181 8.74198C17.5139 9.19785 17.1306 9.59571 16.6865 9.91678Z" fill="#4F4F4F"/>
</g>
<defs>
<clipPath id="clip0_2_3865">
<rect width="24" height="24" fill="white"/>
</clipPath>
</defs>
</svg>
