<svg width="120" height="120" viewBox="0 0 120 120" fill="none" xmlns="http://www.w3.org/2000/svg">
<g id="Group">
<g id="Group_2">
<g id="Group_3">
<path id="Vector" d="M119.303 0.676178C118.663 0.0443041 117.716 -0.166633 116.869 0.136648L19.5206 34.8468C16.1386 32.7787 11.8488 32.2945 7.91437 33.9236C1.38351 36.629 -1.72923 44.1433 0.975926 50.6746C7.35539 66.0749 16.5661 79.8601 28.3531 91.647C40.14 103.434 53.9251 112.645 69.3256 119.024C70.925 119.686 72.5827 120 74.2149 120C79.2481 120 84.0339 117.017 86.0764 112.085C87.4508 108.767 87.321 105.196 86.0064 102.129L119.874 3.10266C120.165 2.25141 119.943 1.30829 119.303 0.676178ZM34.2605 34.5677L44.5777 30.8894C45.789 32.1799 46.3794 33.9564 46.1429 35.7531C45.9343 37.3352 45.1224 38.7416 43.8565 39.7131C42.5907 40.6846 41.0232 41.1044 39.44 40.8965C37.8582 40.6881 36.4519 39.8765 35.4804 38.6104C34.5854 37.4439 34.1595 36.0208 34.2605 34.5677ZM81.7457 110.291C80.0296 114.435 75.2619 116.409 71.1195 114.693C41.1101 102.263 17.7375 78.8898 5.30695 48.8805C4.47562 46.8735 4.47562 44.6631 5.30695 42.6559C6.13828 40.649 7.70133 39.0859 9.70828 38.2546C11.7152 37.4233 13.9259 37.4233 15.9328 38.2546C17.9398 39.0859 19.5028 40.649 20.3342 42.6559C25.6547 55.5013 33.3375 66.9992 43.1691 76.8308C53.0007 86.6623 64.4987 94.3449 77.3441 99.6657C81.4874 101.382 83.462 106.148 81.7457 110.291ZM102.568 39.2177C102.356 39.2125 102.144 39.2003 101.932 39.1727C100.35 38.9643 98.9439 38.1524 97.9726 36.8866C97.0011 35.6207 96.5809 34.052 96.789 32.4703C97.2191 29.2045 100.225 26.8978 103.492 27.3271C104.5 27.4598 105.446 27.8507 106.253 28.4453L102.568 39.2177ZM107.811 23.8882C106.669 23.2664 105.414 22.8522 104.104 22.6797C98.2745 21.9103 92.909 26.0299 92.1416 31.8585C91.7699 34.6818 92.5199 37.4809 94.2536 39.7403C95.9235 41.9165 98.3141 43.3382 101.011 43.7718L96.3524 57.3934L90.995 53.2825C89.9682 52.495 88.4966 52.6881 87.7089 53.7151C86.9209 54.7422 87.1147 56.2133 88.1415 57.0013L94.7521 62.0736L82.6363 97.5005C81.62 96.6169 80.4498 95.8777 79.1389 95.3347C54.2998 85.0458 34.9545 65.7006 24.6661 40.862C24.3085 39.9981 23.8641 39.1961 23.3515 38.4574L29.6278 36.2195C29.847 38.1105 30.5728 39.9142 31.7618 41.4637C33.4953 43.723 36.0052 45.1719 38.8285 45.5434C39.3015 45.6058 39.773 45.6367 40.2422 45.6367C42.5738 45.6367 44.8294 44.875 46.7103 43.4319C48.9699 41.698 50.4186 39.1886 50.7905 36.3649C51.124 33.8301 50.5325 31.3195 49.2043 29.2396L78.3388 18.8517L79.4429 21.5175C79.817 22.42 80.6896 22.965 81.6092 22.965C81.9081 22.965 82.2118 22.9073 82.5053 22.7859C83.701 22.2907 84.2689 20.9193 83.7737 19.7236L82.7598 17.2755L113.866 6.18445L107.811 23.8882Z" fill="#FF9F0D"/>
</g>
</g>
<g id="Group_4">
<g id="Group_5">
<path id="Vector_2" d="M25.6822 63.1682C25.6752 63.1572 25.6556 63.1273 25.6481 63.1164C24.9272 62.035 23.4681 61.7446 22.3862 62.4649C21.3062 63.184 21.0133 64.6436 21.7282 65.7256C22.179 66.4183 22.9334 66.7962 23.704 66.7962C24.1401 66.7962 24.5811 66.6752 24.9747 66.422C26.0686 65.7187 26.3853 64.2619 25.6822 63.1682Z" fill="#FF9F0D"/>
</g>
</g>
<g id="Group_6">
<g id="Group_7">
<path id="Vector_3" d="M22.1015 57.3188C19.8071 53.2957 17.7446 49.0852 15.9714 44.8048C15.4739 43.603 14.0959 43.0332 12.8953 43.5307C11.6939 44.0282 11.1236 45.4057 11.6213 46.607C13.4696 51.0692 15.6197 55.4582 18.0114 59.6517C18.4457 60.4132 19.2406 60.8403 20.0586 60.8403C20.4541 60.8403 20.8551 60.7405 21.2228 60.5307C22.3523 59.8862 22.7459 58.4483 22.1015 57.3188Z" fill="#FF9F0D"/>
</g>
</g>
<g id="Group_8">
<g id="Group_9">
<path id="Vector_4" d="M73.9333 30.1357C73.4667 30.074 72.9927 30.043 72.5247 30.043C67.176 30.043 62.6155 34.047 61.9166 39.3566C61.1458 45.212 65.2819 50.6031 71.137 51.374C71.6036 51.4357 72.0776 51.4668 72.5456 51.4668C77.894 51.4668 82.4546 47.4628 83.1536 42.1527C83.9243 36.2975 79.7882 30.9066 73.9333 30.1357ZM78.4852 41.5381C78.0934 44.5136 75.54 46.7573 72.5456 46.7573C72.2824 46.7573 72.0152 46.7399 71.7517 46.7051C68.4708 46.273 66.1535 43.2523 66.5853 39.9711C66.9771 36.9959 69.5303 34.7524 72.5247 34.7524C72.7879 34.7524 73.0551 34.7698 73.3186 34.8047C76.5993 35.237 78.917 38.2575 78.4852 41.5381Z" fill="#FF9F0D"/>
</g>
</g>
<g id="Group_10">
<g id="Group_11">
<path id="Vector_5" d="M73.3202 59.4238C72.8533 59.3621 72.3796 59.3311 71.9115 59.3311C66.5629 59.3311 62.0023 63.3351 61.3035 68.6449C60.9299 71.4815 61.6833 74.2934 63.4249 76.5634C65.1662 78.8333 67.6874 80.2889 70.5238 80.6626C70.9902 80.724 71.4639 80.7549 71.9318 80.7549C77.2804 80.7549 81.8412 76.7509 82.5403 71.4408C83.3114 65.5858 79.175 60.1952 73.3202 59.4238ZM77.8721 70.8265C77.4803 73.802 74.9267 76.0457 71.9322 76.0457C71.6693 76.0457 71.402 76.028 71.1388 75.9934C69.5495 75.7838 68.1369 74.9682 67.1609 73.6965C66.185 72.4248 65.7629 70.8491 65.9722 69.2595C66.364 66.2842 68.9174 64.0405 71.9115 64.0405C72.1748 64.0405 72.442 64.0579 72.7055 64.0928C75.9859 64.5248 78.3037 67.5456 77.8721 70.8265Z" fill="#FF9F0D"/>
</g>
</g>
<g id="Group_12">
<g id="Group_13">
<path id="Vector_6" d="M57.7914 49.6692L50.5547 48.7163C49.2662 48.5451 48.0828 49.454 47.913 50.7431C47.7431 52.0325 48.6507 53.2152 49.9398 53.385L57.1764 54.3379C57.2807 54.3518 57.3843 54.3584 57.4867 54.3584C58.6501 54.3584 59.662 53.4959 59.8179 52.311C59.9881 51.0219 59.0807 49.8389 57.7914 49.6692Z" fill="#FF9F0D"/>
</g>
</g>
<g id="Group_14">
<g id="Group_15">
<path id="Vector_7" d="M54.1218 67.0456L53.4828 62.1894C53.313 60.9001 52.1306 59.9921 50.8413 60.1624C49.552 60.3321 48.6446 61.5146 48.8144 62.804L49.4536 67.6601C49.6095 68.8452 50.6212 69.7077 51.7847 69.7077C51.8872 69.7077 51.9908 69.7011 52.0948 69.6872C53.3841 69.5174 54.2915 68.335 54.1218 67.0456Z" fill="#FF9F0D"/>
</g>
</g>
</g>
</svg>
